# xmcd
#
# Track frame offsets: 
#        150
#        13272
#        25091
#        36817
#        49846
#        62500
#        76265
#        88720
#        103161
#        115170
#        126159
#        137263
#
# Disc length: 2006 seconds
#
# Revision: 0
# Processed by: cddbd v1.5.2PL0 Copyright (c) Steve Scherf et al.
# Submitted via: ExactAudioCopy v0.95b4
#
DISCID=9407d40c
DTITLE=Eddy Arnold - The Best of Eddy Arnold Disc 2
DYEAR=1986
DGENRE=Classic Country
TTITLE0=Anytime
TTITLE1=Just Call Me Lonesome
TTITLE2=It's a Sin
TTITLE3=I Really Don't Want To Know
TTITLE4=Cattle Call
TTITLE5=Molly Darling
TTITLE6=I'll Hold You In My Heart
TTITLE7=I'm Thinking Tonight of My Blue Eyes
TTITLE8=Just a Little Lovin'
TTITLE9=Boquet of Roses
TTITLE10=You Don't Know Me
TTITLE11=I Can't Help It
EXTD=
EXTT0=
EXTT1=
EXTT2=
EXTT3=
EXTT4=
EXTT5=
EXTT6=
EXTT7=
EXTT8=
EXTT9=
EXTT10=
EXTT11=
PLAYORDER=
